# xmcd CD database file
#
# Track frame offsets:
#	187
#	16890
#	30827
#	43330
#	56805
#	72027
#	85402
#	99765
#	115780
#	130280
#	142980
#	153625
#
# Disc length: 2317 seconds
#
# Revision: 0
# Processed by: cddbd v1.5.1PL2 Copyright (c) Steve Scherf et al.
# Submitted via: CDex 1.51
#
DISCID=97090b0c
DTITLE=The Strikes - THE KING OF THE BEAT
DYEAR=1989
DGENRE=Rock
TTITLE0=IT'S MY SUNDAY
TTITLE1=Jack The Ripper
TTITLE2=Go Go Monkeyman
TTITLE3=OH! Betty Jean
TTITLE4=Applejack
TTITLE5=Monday Morning
TTITLE6=LITTLE KING-BEE
TTITLE7=Cinderella Liberty
TTITLE8=O-RANG-OUTANG BABY
TTITLE9=Hurry Up!! Girl
TTITLE10=Too much no good guy
TTITLE11=Every Day
EXTD=YEAR: 1989
EXTT0=
EXTT1=
EXTT2=
EXTT3=
EXTT4=
EXTT5=
EXTT6=
EXTT7=
EXTT8=
EXTT9=
EXTT10=
EXTT11=
PLAYORDER=
